<?xml version="1.0" encoding="iso-8859-1"?>
<!-- Uploaded to: SVG Repo, www.svgrepo.com, Generator: SVG Repo Mixer Tools -->
<svg height="800px" width="800px" version="1.1" id="Layer_1" xmlns="http://www.w3.org/2000/svg" xmlns:xlink="http://www.w3.org/1999/xlink" 
	 viewBox="0 0 512.001 512.001" xml:space="preserve">
<polygon style="fill:#9BDC6E;" points="474.277,122.724 260.081,9.846 37.727,122.724 37.727,390.637 256.002,502.155 
	474.277,390.637 "/>
<path d="M485.77,120.839c-0.3-2.268-1.523-4.378-3.35-5.775c-0.382-0.293-0.79-0.552-1.216-0.776
	c-0.017-0.009-0.032-0.021-0.049-0.03L259.927,0.948c-2.465-1.263-5.388-1.263-7.853,0L30.849,114.258
	c-0.017,0.009-0.032,0.021-0.049,0.03c-2.781,1.447-4.638,4.476-4.638,7.636v268.168c0,0.025,0.003,0.049,0.003,0.075
	c0.015,1.549,0.473,3.098,1.271,4.421c0.792,1.313,1.989,2.423,3.348,3.134c0.022,0.012,0.041,0.025,0.063,0.037l221.225,113.31
	c0.046,0.024,0.094,0.039,0.141,0.062c2.37,1.157,5.202,1.163,7.571,0c0.047-0.023,0.095-0.038,0.141-0.062l72.547-37.158
	c0.823-0.276,1.591-0.672,2.282-1.169l146.397-74.984c0.022-0.012,0.041-0.025,0.063-0.037c2.072-1.076,3.645-3.03,4.286-5.27
	c0.211-0.738,0.333-1.515,0.333-2.284c0-0.025,0.003-0.049,0.003-0.075c0,0,0-268.164,0-268.168
	C485.841,121.56,485.817,121.197,485.77,120.839z M384.702,84.211l-54.858,28.098l-54.949-28.144l54.858-28.098L384.702,84.211z
	 M310.949,121.986l-54.949,28.145l-54.949-28.144l54.949-28.145L310.949,121.986z M256.001,18.291l54.858,28.098l-54.858,28.098
	l-54.858-28.098L256.001,18.291z M182.249,56.067l54.858,28.098l-54.949,28.145l-54.858-28.099L182.249,56.067z M99.895,413.768
	l-56.506-28.942v-73.292l56.506,28.942V413.768z M99.895,321.12l-56.506-28.942v-62.955l56.506,28.942V321.12z M99.895,238.811
	l-56.506-28.942v-73.855l56.506,28.942V238.811z M53.671,121.924l54.735-28.035l54.858,28.098l-54.735,28.035L53.671,121.924z
	 M173.646,451.542l-56.523-28.951v-73.292l56.523,28.951V451.542z M173.646,358.895l-56.523-28.951v-62.955l56.523,28.951V358.895z
	 M173.646,276.585l-56.523-28.951v-73.855l56.523,28.951V276.585z M127.422,159.699l54.735-28.035l54.949,28.145l-54.735,28.035
	L127.422,159.699z M247.387,489.313l-56.514-28.947v-73.292l56.514,28.947V489.313z M247.387,396.665l-56.514-28.947v-62.954
	l56.514,28.947V396.665z M247.387,314.354l-56.514-28.947v-73.855l56.514,28.947V314.354z M256.001,225.556l-54.735-28.035
	l54.735-28.035l54.735,28.035L256.001,225.556z M321.13,460.366l-56.515,28.947V416.02l56.515-28.947V460.366z M321.13,367.718
	l-56.515,28.947V333.71l56.515-28.947V367.718z M321.13,285.409l-56.515,28.945v-73.855l56.515-28.947V285.409z M329.632,187.843
	l-54.735-28.035l54.949-28.144l54.735,28.035L329.632,187.843z M394.879,422.592l-56.522,28.95V378.25l56.522-28.95V422.592z
	 M394.879,329.944l-56.522,28.95v-62.954l56.522-28.95V329.944z M394.879,247.635l-56.522,28.95V202.73l56.522-28.95V247.635z
	 M403.474,150.022l-54.735-28.035l54.858-28.098l54.735,28.035L403.474,150.022z M468.614,384.826l-56.507,28.942v-73.292
	l56.507-28.942V384.826z M468.614,292.178l-56.507,28.942v-62.955l56.507-28.942V292.178z M468.614,209.869l-56.507,28.942v-73.855
	l56.507-28.942V209.869z"/>
</svg>